<mxfile host="app.diagrams.net" agent="Mozilla/5.0 (Windows NT 10.0; Win64; x64) AppleWebKit/537.36 (KHTML, like Gecko) Chrome/136.0.0.0 Safari/537.36" version="27.0.9">
  <diagram id="ZlMczgWSLFKLbH-kt61-" name="Page-1">
    <mxGraphModel grid="1" page="1" gridSize="10" guides="1" tooltips="1" connect="1" arrows="1" fold="1" pageScale="1" pageWidth="827" pageHeight="1169" background="#FFFFFF" math="0" shadow="0">
      <root>
        <mxCell id="0" />
        <mxCell id="1" parent="0" />
        <mxCell id="Bb0VLfqd_XReyqCJAb9b-1" value="" style="rounded=1;whiteSpace=wrap;html=1;labelBackgroundColor=none;fillColor=#cce5ff;strokeColor=#36393d;" vertex="1" parent="1">
          <mxGeometry x="480" y="-900" width="210" height="400" as="geometry" />
        </mxCell>
        <mxCell id="Bb0VLfqd_XReyqCJAb9b-2" value="&lt;font style=&quot;font-size: 16px;&quot;&gt;Sign In&lt;/font&gt;" style="ellipse;whiteSpace=wrap;html=1;labelBackgroundColor=none;rounded=1;fillColor=#cce5ff;strokeColor=#36393d;" vertex="1" parent="1">
          <mxGeometry x="502.5" y="-840" width="167.5" height="50" as="geometry" />
        </mxCell>
        <mxCell id="Bb0VLfqd_XReyqCJAb9b-5" value="&lt;font style=&quot;font-size: 16px;&quot;&gt;Sign Up&lt;/font&gt;" style="ellipse;whiteSpace=wrap;html=1;labelBackgroundColor=none;rounded=1;fillColor=#cce5ff;strokeColor=#36393d;" vertex="1" parent="1">
          <mxGeometry x="502.5" y="-770" width="167.5" height="50" as="geometry" />
        </mxCell>
        <mxCell id="Bb0VLfqd_XReyqCJAb9b-6" value="&lt;font style=&quot;font-size: 16px;&quot;&gt;Logout&lt;/font&gt;" style="ellipse;whiteSpace=wrap;html=1;labelBackgroundColor=none;rounded=1;fillColor=#cce5ff;strokeColor=#36393d;" vertex="1" parent="1">
          <mxGeometry x="502.5" y="-710" width="167.5" height="50" as="geometry" />
        </mxCell>
        <mxCell id="Bb0VLfqd_XReyqCJAb9b-7" value="&lt;font style=&quot;font-size: 16px;&quot;&gt;Forget Password&lt;/font&gt;" style="ellipse;whiteSpace=wrap;html=1;labelBackgroundColor=none;rounded=1;fillColor=#cce5ff;strokeColor=#36393d;" vertex="1" parent="1">
          <mxGeometry x="502.5" y="-640" width="167.5" height="50" as="geometry" />
        </mxCell>
        <mxCell id="Bb0VLfqd_XReyqCJAb9b-8" value="&lt;font style=&quot;font-size: 16px;&quot;&gt;Verification&lt;/font&gt;" style="ellipse;whiteSpace=wrap;html=1;labelBackgroundColor=none;rounded=1;fillColor=#cce5ff;strokeColor=#36393d;" vertex="1" parent="1">
          <mxGeometry x="502.5" y="-570" width="167.5" height="50" as="geometry" />
        </mxCell>
        <mxCell id="Bb0VLfqd_XReyqCJAb9b-9" value="&lt;b&gt;&lt;span style=&quot;font-size:12.0pt;line-height:107%;&lt;br/&gt;font-family:&amp;quot;Times New Roman&amp;quot;,serif;mso-fareast-font-family:&amp;quot;Times New Roman&amp;quot;;&lt;br/&gt;color:#262626;mso-ansi-language:EN-US;mso-fareast-language:EN-US;mso-bidi-language:&lt;br/&gt;AR-SA&quot;&gt;Registration and Login&lt;/span&gt;&lt;/b&gt;" style="text;html=1;align=center;verticalAlign=middle;whiteSpace=wrap;rounded=0;" vertex="1" parent="1">
          <mxGeometry x="496.88" y="-890" width="178.75" height="30" as="geometry" />
        </mxCell>
        <mxCell id="Bb0VLfqd_XReyqCJAb9b-10" value="" style="rounded=1;whiteSpace=wrap;html=1;labelBackgroundColor=none;fillColor=light-dark(#cec9b1, #1b1911);strokeColor=#36393d;" vertex="1" parent="1">
          <mxGeometry x="1200" y="-260" width="210" height="340" as="geometry" />
        </mxCell>
        <mxCell id="Bb0VLfqd_XReyqCJAb9b-11" value="&lt;font style=&quot;font-size: 16px;&quot;&gt;View Profile&lt;/font&gt;" style="ellipse;whiteSpace=wrap;html=1;labelBackgroundColor=none;rounded=1;fillColor=light-dark(#cec9b1, #1b1911);strokeColor=#36393d;" vertex="1" parent="1">
          <mxGeometry x="1222.5" y="-200" width="167.5" height="50" as="geometry" />
        </mxCell>
        <mxCell id="Bb0VLfqd_XReyqCJAb9b-12" value="&lt;font style=&quot;font-size: 16px;&quot;&gt;Update Profile&lt;/font&gt;" style="ellipse;whiteSpace=wrap;html=1;labelBackgroundColor=none;rounded=1;fillColor=light-dark(#cec9b1, #1b1911);strokeColor=#36393d;" vertex="1" parent="1">
          <mxGeometry x="1222.5" y="-130" width="167.5" height="50" as="geometry" />
        </mxCell>
        <mxCell id="Bb0VLfqd_XReyqCJAb9b-13" value="&lt;span style=&quot;font-size: 16px;&quot;&gt;Password Change&lt;/span&gt;" style="ellipse;whiteSpace=wrap;html=1;labelBackgroundColor=none;rounded=1;fillColor=light-dark(#cec9b1, #1b1911);strokeColor=#36393d;" vertex="1" parent="1">
          <mxGeometry x="1222.5" y="-70" width="167.5" height="50" as="geometry" />
        </mxCell>
        <mxCell id="Bb0VLfqd_XReyqCJAb9b-14" value="&lt;font style=&quot;font-size: 16px;&quot;&gt;Delete Profile&lt;/font&gt;" style="ellipse;whiteSpace=wrap;html=1;labelBackgroundColor=none;rounded=1;fillColor=light-dark(#cec9b1, #1b1911);strokeColor=#36393d;" vertex="1" parent="1">
          <mxGeometry x="1222.5" width="167.5" height="50" as="geometry" />
        </mxCell>
        <mxCell id="Bb0VLfqd_XReyqCJAb9b-16" value="&lt;span style=&quot;font-size: 16px;&quot;&gt;&lt;b&gt;Profile Management&lt;/b&gt;&lt;/span&gt;" style="text;html=1;align=center;verticalAlign=middle;whiteSpace=wrap;rounded=0;fillColor=light-dark(#cec9b1, #1b1911);strokeColor=none;" vertex="1" parent="1">
          <mxGeometry x="1216.88" y="-250" width="178.75" height="30" as="geometry" />
        </mxCell>
        <mxCell id="Bb0VLfqd_XReyqCJAb9b-17" value="" style="rounded=1;whiteSpace=wrap;html=1;labelBackgroundColor=none;fillColor=#ffcc99;strokeColor=#36393d;" vertex="1" parent="1">
          <mxGeometry x="810" y="-970" width="240" height="530" as="geometry" />
        </mxCell>
        <mxCell id="Bb0VLfqd_XReyqCJAb9b-18" value="&lt;span style=&quot;font-size: 16px;&quot;&gt;View Alumni&amp;nbsp;&lt;/span&gt;&lt;span style=&quot;text-indent: -24px;&quot;&gt;&lt;span style=&quot;font-size: 12pt; font-family: &amp;quot;Times New Roman&amp;quot;, serif;&quot;&gt;Directory&lt;/span&gt;&lt;/span&gt;" style="ellipse;whiteSpace=wrap;html=1;labelBackgroundColor=none;rounded=1;fillColor=#ffcc99;strokeColor=#36393d;" vertex="1" parent="1">
          <mxGeometry x="834.29" y="-920" width="179.69" height="60" as="geometry" />
        </mxCell>
        <mxCell id="Bb0VLfqd_XReyqCJAb9b-19" value="&lt;span style=&quot;font-size: 16px;&quot;&gt;Send Connection Request / Message&lt;/span&gt;" style="ellipse;whiteSpace=wrap;html=1;labelBackgroundColor=none;rounded=1;fillColor=#ffcc99;strokeColor=#36393d;" vertex="1" parent="1">
          <mxGeometry x="841.89" y="-710" width="177.5" height="60" as="geometry" />
        </mxCell>
        <mxCell id="Bb0VLfqd_XReyqCJAb9b-20" value="&lt;span style=&quot;font-size: 16px;&quot;&gt;Search Alumni by Criteria&lt;/span&gt;" style="ellipse;whiteSpace=wrap;html=1;labelBackgroundColor=none;rounded=1;fillColor=#ffcc99;strokeColor=#36393d;" vertex="1" parent="1">
          <mxGeometry x="832.63" y="-850" width="194.74" height="60" as="geometry" />
        </mxCell>
        <mxCell id="Bb0VLfqd_XReyqCJAb9b-21" value="&lt;font style=&quot;font-size: 16px;&quot;&gt;View Alumni Profile&lt;/font&gt;" style="ellipse;whiteSpace=wrap;html=1;labelBackgroundColor=none;rounded=1;fillColor=#ffcc99;strokeColor=#36393d;" vertex="1" parent="1">
          <mxGeometry x="835.25" y="-780" width="187.49" height="60" as="geometry" />
        </mxCell>
        <mxCell id="Bb0VLfqd_XReyqCJAb9b-23" value="&lt;p style=&quot;margin-bottom:0in;mso-add-space:auto;&lt;br/&gt;text-align:justify;text-indent:-.25in;line-height:115%;mso-list:l0 level1 lfo1;&lt;br/&gt;background:white&quot; class=&quot;MsoListParagraph&quot;&gt;&lt;span style=&quot;font-size: 12pt; font-family: Symbol; color: rgb(38, 38, 38);&quot;&gt;&lt;span style=&quot;font-variant-numeric: normal; font-variant-east-asian: normal; font-variant-alternates: normal; font-size-adjust: none; font-kerning: auto; font-optical-sizing: auto; font-feature-settings: normal; font-variation-settings: normal; font-variant-position: normal; font-variant-emoji: normal; font-stretch: normal; font-size: 7pt; line-height: normal; font-family: &amp;quot;Times New Roman&amp;quot;;&quot;&gt;&amp;nbsp; &amp;nbsp; &amp;nbsp; &amp;nbsp;&amp;nbsp;&lt;/span&gt;&lt;/span&gt;&lt;b&gt;&lt;span style=&quot;font-size:12.0pt;line-height:&lt;br/&gt;115%;font-family:&amp;quot;Times New Roman&amp;quot;,serif;mso-fareast-font-family:&amp;quot;Times New Roman&amp;quot;;&lt;br/&gt;color:#262626&quot;&gt;Alumni Directory and Search&lt;/span&gt;&lt;/b&gt;&lt;span style=&quot;line-height: 115%; font-family: &amp;quot;Times New Roman&amp;quot;, serif; color: rgb(38, 38, 38);&quot;&gt;&lt;/span&gt;&lt;/p&gt;" style="text;html=1;align=center;verticalAlign=middle;whiteSpace=wrap;rounded=0;strokeColor=none;fillColor=#ffcc99;" vertex="1" parent="1">
          <mxGeometry x="829.0800000000002" y="-960" width="203.12" height="40" as="geometry" />
        </mxCell>
        <mxCell id="Bb0VLfqd_XReyqCJAb9b-27" value="&lt;font style=&quot;font-size: 16px;&quot;&gt;Discussion Forum&lt;/font&gt;" style="ellipse;whiteSpace=wrap;html=1;labelBackgroundColor=none;rounded=1;fillColor=none;strokeColor=#36393d;" vertex="1" parent="1">
          <mxGeometry x="832.82" y="-640" width="194.37" height="50" as="geometry" />
        </mxCell>
        <mxCell id="Bb0VLfqd_XReyqCJAb9b-28" value="&lt;font style=&quot;font-size: 16px;&quot;&gt;Manage Association Roles&lt;/font&gt;" style="ellipse;whiteSpace=wrap;html=1;labelBackgroundColor=none;rounded=1;fillColor=none;strokeColor=#36393d;" vertex="1" parent="1">
          <mxGeometry x="826.81" y="-581" width="204.37" height="61" as="geometry" />
        </mxCell>
        <mxCell id="Bb0VLfqd_XReyqCJAb9b-29" value="&lt;span style=&quot;font-size: 16px;&quot;&gt;View Member&amp;nbsp;&lt;/span&gt;&lt;span style=&quot;text-indent: -24px;&quot;&gt;&lt;span style=&quot;font-size: 12pt; font-family: &amp;quot;Times New Roman&amp;quot;, serif;&quot;&gt;Directory&lt;/span&gt;&lt;/span&gt;" style="ellipse;whiteSpace=wrap;html=1;labelBackgroundColor=none;rounded=1;fillColor=none;strokeColor=#36393d;" vertex="1" parent="1">
          <mxGeometry x="836.57" y="-510" width="179.38" height="60" as="geometry" />
        </mxCell>
        <mxCell id="Bb0VLfqd_XReyqCJAb9b-31" value="" style="rounded=1;whiteSpace=wrap;html=1;labelBackgroundColor=none;fillColor=#f5f5f5;strokeColor=#666666;gradientColor=none;" vertex="1" parent="1">
          <mxGeometry x="913.75" y="-90" width="210" height="380" as="geometry" />
        </mxCell>
        <mxCell id="Bb0VLfqd_XReyqCJAb9b-32" value="&lt;font style=&quot;font-size: 16px;&quot;&gt;Organize Event&lt;/font&gt;" style="ellipse;whiteSpace=wrap;html=1;labelBackgroundColor=none;rounded=1;fillColor=#f5f5f5;strokeColor=#666666;gradientColor=none;" vertex="1" parent="1">
          <mxGeometry x="936.25" y="-30" width="167.5" height="50" as="geometry" />
        </mxCell>
        <mxCell id="Bb0VLfqd_XReyqCJAb9b-33" value="&lt;font style=&quot;font-size: 16px;&quot;&gt;View Event&amp;nbsp;&lt;/font&gt;" style="ellipse;whiteSpace=wrap;html=1;labelBackgroundColor=none;rounded=1;fillColor=#f5f5f5;strokeColor=#666666;gradientColor=none;" vertex="1" parent="1">
          <mxGeometry x="935" y="100" width="167.5" height="50" as="geometry" />
        </mxCell>
        <mxCell id="Bb0VLfqd_XReyqCJAb9b-34" value="&lt;font style=&quot;font-size: 16px;&quot;&gt;Event Feedback&lt;/font&gt;" style="ellipse;whiteSpace=wrap;html=1;labelBackgroundColor=none;rounded=1;fillColor=#f5f5f5;strokeColor=#666666;gradientColor=none;" vertex="1" parent="1">
          <mxGeometry x="935" y="220" width="167.5" height="50" as="geometry" />
        </mxCell>
        <mxCell id="Bb0VLfqd_XReyqCJAb9b-35" value="&lt;font style=&quot;font-size: 16px;&quot;&gt;Event Check-in&lt;/font&gt;" style="ellipse;whiteSpace=wrap;html=1;labelBackgroundColor=none;rounded=1;fillColor=#f5f5f5;strokeColor=#666666;gradientColor=none;" vertex="1" parent="1">
          <mxGeometry x="935" y="160" width="167.5" height="50" as="geometry" />
        </mxCell>
        <mxCell id="Bb0VLfqd_XReyqCJAb9b-36" value="&lt;font style=&quot;font-size: 16px;&quot;&gt;Register Event&lt;/font&gt;" style="ellipse;whiteSpace=wrap;html=1;labelBackgroundColor=none;rounded=1;fillColor=#f5f5f5;strokeColor=#666666;gradientColor=none;" vertex="1" parent="1">
          <mxGeometry x="936.26" y="30" width="167.5" height="50" as="geometry" />
        </mxCell>
        <mxCell id="Bb0VLfqd_XReyqCJAb9b-37" value="&lt;b&gt;&lt;span style=&quot;font-size:12.0pt;line-height:107%;&lt;br/&gt;font-family:&amp;quot;Times New Roman&amp;quot;,serif;mso-fareast-font-family:&amp;quot;Times New Roman&amp;quot;;&lt;br/&gt;color:#262626;mso-ansi-language:EN-US;mso-fareast-language:EN-US;mso-bidi-language:&lt;br/&gt;AR-SA&quot;&gt;Event Management&lt;/span&gt;&lt;/b&gt;" style="text;html=1;align=center;verticalAlign=middle;whiteSpace=wrap;rounded=0;strokeColor=none;fillColor=#f5f5f5;gradientColor=none;" vertex="1" parent="1">
          <mxGeometry x="930.63" y="-80" width="178.75" height="30" as="geometry" />
        </mxCell>
        <mxCell id="Bb0VLfqd_XReyqCJAb9b-38" value="" style="rounded=1;whiteSpace=wrap;html=1;labelBackgroundColor=none;fillColor=#cdeb8b;strokeColor=#36393d;" vertex="1" parent="1">
          <mxGeometry x="1123.75" y="-690" width="210" height="410" as="geometry" />
        </mxCell>
        <mxCell id="Bb0VLfqd_XReyqCJAb9b-39" value="&lt;font style=&quot;font-size: 16px;&quot;&gt;Collect Donations&lt;/font&gt;" style="ellipse;whiteSpace=wrap;html=1;labelBackgroundColor=none;rounded=1;fillColor=#cdeb8b;strokeColor=#36393d;" vertex="1" parent="1">
          <mxGeometry x="1160.63" y="-500" width="138.75" height="60" as="geometry" />
        </mxCell>
        <mxCell id="Bb0VLfqd_XReyqCJAb9b-40" value="&lt;font style=&quot;font-size: 16px;&quot;&gt;View Donations History&lt;/font&gt;" style="ellipse;whiteSpace=wrap;html=1;labelBackgroundColor=none;rounded=1;fillColor=#cdeb8b;strokeColor=#36393d;" vertex="1" parent="1">
          <mxGeometry x="1163.3899999999999" y="-360" width="130.72" height="60" as="geometry" />
        </mxCell>
        <mxCell id="Bb0VLfqd_XReyqCJAb9b-41" value="&lt;span style=&quot;font-size: 16px;&quot;&gt;Create Fundraising Campaign&lt;/span&gt;" style="ellipse;whiteSpace=wrap;html=1;labelBackgroundColor=none;rounded=1;fillColor=#cdeb8b;strokeColor=#36393d;" vertex="1" parent="1">
          <mxGeometry x="1153.75" y="-640" width="145.43" height="70" as="geometry" />
        </mxCell>
        <mxCell id="Bb0VLfqd_XReyqCJAb9b-42" value="&lt;font style=&quot;font-size: 16px;&quot;&gt;Create Donation Receipt&lt;/font&gt;" style="ellipse;whiteSpace=wrap;html=1;labelBackgroundColor=none;rounded=1;fillColor=#cdeb8b;strokeColor=#36393d;" vertex="1" parent="1">
          <mxGeometry x="1157.0900000000001" y="-430" width="138.75" height="60" as="geometry" />
        </mxCell>
        <mxCell id="Bb0VLfqd_XReyqCJAb9b-43" value="&lt;span style=&quot;font-size: 16px;&quot;&gt;Select Payment Method&lt;/span&gt;" style="ellipse;whiteSpace=wrap;html=1;labelBackgroundColor=none;rounded=1;fillColor=#cdeb8b;strokeColor=#36393d;" vertex="1" parent="1">
          <mxGeometry x="1156.26" y="-565" width="147.5" height="60" as="geometry" />
        </mxCell>
        <mxCell id="Bb0VLfqd_XReyqCJAb9b-44" value="&lt;b&gt;&lt;span style=&quot;font-size:12.0pt;line-height:107%;&lt;br/&gt;font-family:&amp;quot;Times New Roman&amp;quot;,serif;mso-fareast-font-family:&amp;quot;Times New Roman&amp;quot;;&lt;br/&gt;color:#262626;mso-ansi-language:EN-US;mso-fareast-language:EN-US;mso-bidi-language:&lt;br/&gt;AR-SA&quot;&gt;Fundraising &amp;amp; Donation&amp;nbsp;&lt;/span&gt;&lt;/b&gt;" style="text;html=1;align=center;verticalAlign=middle;whiteSpace=wrap;rounded=0;fillColor=#cdeb8b;strokeColor=none;" vertex="1" parent="1">
          <mxGeometry x="1133.44" y="-680" width="193.12" height="30" as="geometry" />
        </mxCell>
        <mxCell id="jl0400vtrYUEeYDO2_m0-6" value="" style="shape=umlActor;verticalLabelPosition=bottom;verticalAlign=top;html=1;outlineConnect=0;fillColor=#9AC7BF;" vertex="1" parent="1">
          <mxGeometry x="60" y="-330" width="120" height="210" as="geometry" />
        </mxCell>
        <mxCell id="jl0400vtrYUEeYDO2_m0-7" value="" style="endArrow=none;html=1;rounded=0;entryX=0.044;entryY=0.98;entryDx=0;entryDy=0;entryPerimeter=0;" edge="1" parent="1" target="Bb0VLfqd_XReyqCJAb9b-1">
          <mxGeometry width="50" height="50" relative="1" as="geometry">
            <mxPoint x="177" y="-267.70667092243866" as="sourcePoint" />
            <mxPoint x="492.96000000000004" y="-492.5999999999999" as="targetPoint" />
          </mxGeometry>
        </mxCell>
        <mxCell id="jl0400vtrYUEeYDO2_m0-8" value="" style="endArrow=none;html=1;rounded=0;entryX=0.005;entryY=0.897;entryDx=0;entryDy=0;entryPerimeter=0;" edge="1" parent="1">
          <mxGeometry width="50" height="50" relative="1" as="geometry">
            <mxPoint x="179" y="-252.438865576617" as="sourcePoint" />
            <mxPoint x="810.0999999999999" y="-541.05" as="targetPoint" />
          </mxGeometry>
        </mxCell>
        <mxCell id="jl0400vtrYUEeYDO2_m0-9" value="" style="endArrow=none;html=1;rounded=0;entryX=0;entryY=0.606;entryDx=0;entryDy=0;entryPerimeter=0;" edge="1" parent="1" source="jl0400vtrYUEeYDO2_m0-6" target="Bb0VLfqd_XReyqCJAb9b-38">
          <mxGeometry width="50" height="50" relative="1" as="geometry">
            <mxPoint x="490" y="-30" as="sourcePoint" />
            <mxPoint x="540" y="-80" as="targetPoint" />
          </mxGeometry>
        </mxCell>
        <mxCell id="jl0400vtrYUEeYDO2_m0-10" value="" style="endArrow=none;html=1;rounded=0;entryX=0;entryY=0.324;entryDx=0;entryDy=0;entryPerimeter=0;" edge="1" parent="1" source="jl0400vtrYUEeYDO2_m0-6" target="Bb0VLfqd_XReyqCJAb9b-10">
          <mxGeometry width="50" height="50" relative="1" as="geometry">
            <mxPoint x="870" y="10" as="sourcePoint" />
            <mxPoint x="920" y="-40" as="targetPoint" />
          </mxGeometry>
        </mxCell>
        <mxCell id="jl0400vtrYUEeYDO2_m0-12" value="" style="endArrow=none;html=1;rounded=0;entryX=0.001;entryY=0.08;entryDx=0;entryDy=0;entryPerimeter=0;" edge="1" parent="1" source="jl0400vtrYUEeYDO2_m0-6" target="Bb0VLfqd_XReyqCJAb9b-31">
          <mxGeometry width="50" height="50" relative="1" as="geometry">
            <mxPoint x="530" y="-60" as="sourcePoint" />
            <mxPoint x="580" y="-110" as="targetPoint" />
          </mxGeometry>
        </mxCell>
        <mxCell id="jl0400vtrYUEeYDO2_m0-16" value="&lt;font style=&quot;font-size: 16px;&quot;&gt;&lt;b&gt;Member&lt;/b&gt;&lt;/font&gt;" style="text;html=1;align=center;verticalAlign=middle;whiteSpace=wrap;rounded=0;fillColor=none;" vertex="1" parent="1">
          <mxGeometry x="90" y="-110" width="60" height="30" as="geometry" />
        </mxCell>
        <mxCell id="IlbmNx4RSXjxos0xUWgO-1" value="" style="rounded=1;whiteSpace=wrap;html=1;labelBackgroundColor=none;fillColor=#d5e8d4;strokeColor=#82b366;" vertex="1" parent="1">
          <mxGeometry x="648.39" y="-17.5" width="210" height="285" as="geometry" />
        </mxCell>
        <mxCell id="IlbmNx4RSXjxos0xUWgO-2" value="&lt;p style=&quot;margin-bottom:0in;mso-add-space:auto;&lt;br/&gt;text-align:justify;text-indent:-.25in;line-height:115%;mso-list:l0 level1 lfo1;&lt;br/&gt;background:white&quot; class=&quot;MsoListParagraph&quot;&gt;&lt;font face=&quot;Times New Roman, serif&quot;&gt;&lt;span style=&quot;font-size: 16px;&quot;&gt;&lt;b&gt;Help &amp;amp; Support Center&lt;/b&gt;&lt;/span&gt;&lt;/font&gt;&lt;/p&gt;&lt;p style=&quot;margin-bottom:0in;mso-add-space:auto;&lt;br/&gt;text-align:justify;text-indent:-.25in;line-height:115%;mso-list:l0 level1 lfo1;&lt;br/&gt;background:white&quot; class=&quot;MsoListParagraph&quot;&gt;&lt;font face=&quot;Times New Roman, serif&quot;&gt;&lt;span style=&quot;font-size: 16px;&quot;&gt;&lt;b&gt;(Automated)&lt;/b&gt;&lt;/span&gt;&lt;/font&gt;&lt;/p&gt;" style="text;html=1;align=center;verticalAlign=middle;whiteSpace=wrap;rounded=0;fillColor=none;strokeColor=none;" vertex="1" parent="1">
          <mxGeometry x="608.3899999999999" y="2.5" width="304.36" height="30" as="geometry" />
        </mxCell>
        <mxCell id="IlbmNx4RSXjxos0xUWgO-3" value="&lt;span style=&quot;font-size: 16px;&quot;&gt;FAQ&lt;/span&gt;" style="ellipse;whiteSpace=wrap;html=1;labelBackgroundColor=none;rounded=1;fillColor=#ffcccc;strokeColor=#36393d;" vertex="1" parent="1">
          <mxGeometry x="663.64" y="56.5" width="167.5" height="50" as="geometry" />
        </mxCell>
        <mxCell id="IlbmNx4RSXjxos0xUWgO-4" value="&lt;span style=&quot;font-size: 16px;&quot;&gt;Hotline&lt;/span&gt;" style="ellipse;whiteSpace=wrap;html=1;labelBackgroundColor=none;rounded=1;fillColor=#ffcccc;strokeColor=#36393d;" vertex="1" parent="1">
          <mxGeometry x="663.64" y="122.5" width="167.5" height="50" as="geometry" />
        </mxCell>
        <mxCell id="IlbmNx4RSXjxos0xUWgO-5" value="&lt;span style=&quot;font-size: 16px;&quot;&gt;Live Chat&lt;/span&gt;" style="ellipse;whiteSpace=wrap;html=1;labelBackgroundColor=none;rounded=1;fillColor=#ffcccc;strokeColor=#36393d;" vertex="1" parent="1">
          <mxGeometry x="663.64" y="185.5" width="167.5" height="50" as="geometry" />
        </mxCell>
        <mxCell id="IlbmNx4RSXjxos0xUWgO-6" value="" style="rounded=1;whiteSpace=wrap;html=1;labelBackgroundColor=none;fillColor=#ffe6cc;strokeColor=#d79b00;" vertex="1" parent="1">
          <mxGeometry x="340" width="254.5" height="270" as="geometry" />
        </mxCell>
        <mxCell id="IlbmNx4RSXjxos0xUWgO-7" value="&lt;p style=&quot;margin-bottom:0in;mso-add-space:auto;&lt;br/&gt;text-align:justify;text-indent:-.25in;line-height:115%;mso-list:l0 level1 lfo1;&lt;br/&gt;background:white&quot; class=&quot;MsoListParagraph&quot;&gt;&lt;font face=&quot;Times New Roman, serif&quot;&gt;&lt;span style=&quot;font-size: 16px;&quot;&gt;&lt;b&gt;Communication &amp;amp; Notification System&lt;/b&gt;&lt;/span&gt;&lt;/font&gt;&lt;/p&gt;" style="text;html=1;align=center;verticalAlign=middle;whiteSpace=wrap;rounded=0;fillColor=none;strokeColor=none;" vertex="1" parent="1">
          <mxGeometry x="366.5" y="10" width="210" height="30" as="geometry" />
        </mxCell>
        <mxCell id="IlbmNx4RSXjxos0xUWgO-8" value="&lt;span style=&quot;font-size: 16px;&quot;&gt;Get Notification&lt;/span&gt;" style="ellipse;whiteSpace=wrap;html=1;labelBackgroundColor=none;rounded=1;fillColor=#ffcccc;strokeColor=#36393d;" vertex="1" parent="1">
          <mxGeometry x="377.5" y="60" width="167.5" height="50" as="geometry" />
        </mxCell>
        <mxCell id="IlbmNx4RSXjxos0xUWgO-9" value="&lt;span style=&quot;font-size: 16px;&quot;&gt;Get Email&lt;/span&gt;" style="ellipse;whiteSpace=wrap;html=1;labelBackgroundColor=none;rounded=1;fillColor=#ffcccc;strokeColor=#36393d;" vertex="1" parent="1">
          <mxGeometry x="376.25" y="120" width="167.5" height="50" as="geometry" />
        </mxCell>
        <mxCell id="IlbmNx4RSXjxos0xUWgO-10" value="&lt;span style=&quot;font-size: 16px;&quot;&gt;Get SMS&lt;/span&gt;" style="ellipse;whiteSpace=wrap;html=1;labelBackgroundColor=none;rounded=1;fillColor=#ffcccc;strokeColor=#36393d;" vertex="1" parent="1">
          <mxGeometry x="375.25" y="182" width="167.5" height="58" as="geometry" />
        </mxCell>
        <mxCell id="IlbmNx4RSXjxos0xUWgO-14" value="" style="endArrow=none;html=1;rounded=0;entryX=0.059;entryY=0.017;entryDx=0;entryDy=0;entryPerimeter=0;" edge="1" parent="1" source="jl0400vtrYUEeYDO2_m0-6" target="IlbmNx4RSXjxos0xUWgO-1">
          <mxGeometry width="50" height="50" relative="1" as="geometry">
            <mxPoint x="310" y="-100" as="sourcePoint" />
            <mxPoint x="470" y="140" as="targetPoint" />
          </mxGeometry>
        </mxCell>
        <mxCell id="IlbmNx4RSXjxos0xUWgO-15" value="" style="endArrow=none;html=1;rounded=0;entryX=0.431;entryY=-0.004;entryDx=0;entryDy=0;entryPerimeter=0;" edge="1" parent="1" source="jl0400vtrYUEeYDO2_m0-6" target="IlbmNx4RSXjxos0xUWgO-6">
          <mxGeometry width="50" height="50" relative="1" as="geometry">
            <mxPoint x="210" y="-180" as="sourcePoint" />
            <mxPoint x="240" y="70" as="targetPoint" />
          </mxGeometry>
        </mxCell>
      </root>
    </mxGraphModel>
  </diagram>
</mxfile>
